<mxfile host="app.diagrams.net" agent="Mozilla/5.0 (Windows NT 10.0; Win64; x64) AppleWebKit/537.36 (KHTML, like Gecko) Chrome/127.0.0.0 Safari/537.36" version="24.7.6" pages="3">
  <diagram id="Exhmos0V5MrwLxkNMj15" name="01요구사항정리">
    <mxGraphModel dx="2261" dy="780" grid="1" gridSize="10" guides="1" tooltips="1" connect="1" arrows="1" fold="1" page="1" pageScale="1" pageWidth="827" pageHeight="1169" math="0" shadow="0">
      <root>
        <mxCell id="0" />
        <mxCell id="1" parent="0" />
        <mxCell id="rH5uDCxlVJgdDC_gf3Qf-5" value="" style="rounded=0;whiteSpace=wrap;html=1;" parent="1" vertex="1">
          <mxGeometry x="-810" y="750" width="780" height="420" as="geometry" />
        </mxCell>
        <mxCell id="rH5uDCxlVJgdDC_gf3Qf-4" value="" style="rounded=0;whiteSpace=wrap;html=1;" parent="1" vertex="1">
          <mxGeometry x="-110" y="120" width="340" height="190" as="geometry" />
        </mxCell>
        <mxCell id="rH5uDCxlVJgdDC_gf3Qf-3" value="" style="rounded=0;whiteSpace=wrap;html=1;" parent="1" vertex="1">
          <mxGeometry x="-810" y="120" width="654" height="530" as="geometry" />
        </mxCell>
        <mxCell id="0Hx6OvtdSC8D4z6hXmj2-1" value="도서관리 프로그램" style="text;html=1;align=center;verticalAlign=middle;resizable=0;points=[];autosize=1;strokeColor=none;fillColor=none;" parent="1" vertex="1">
          <mxGeometry x="-810" y="20" width="120" height="30" as="geometry" />
        </mxCell>
        <mxCell id="0Hx6OvtdSC8D4z6hXmj2-2" value="회원" style="text;html=1;align=center;verticalAlign=middle;resizable=0;points=[];autosize=1;strokeColor=none;fillColor=none;" parent="1" vertex="1">
          <mxGeometry x="-814" y="80" width="50" height="30" as="geometry" />
        </mxCell>
        <mxCell id="0Hx6OvtdSC8D4z6hXmj2-3" value="비회원" style="text;html=1;align=center;verticalAlign=middle;resizable=0;points=[];autosize=1;strokeColor=none;fillColor=none;" parent="1" vertex="1">
          <mxGeometry x="-110" y="90" width="60" height="30" as="geometry" />
        </mxCell>
        <mxCell id="0Hx6OvtdSC8D4z6hXmj2-5" value="직원" style="text;html=1;align=center;verticalAlign=middle;resizable=0;points=[];autosize=1;strokeColor=none;fillColor=none;" parent="1" vertex="1">
          <mxGeometry x="-814" y="720" width="50" height="30" as="geometry" />
        </mxCell>
        <mxCell id="0Hx6OvtdSC8D4z6hXmj2-8" value="전체 도서를 검색할 수 있다" style="text;html=1;align=center;verticalAlign=middle;resizable=0;points=[];autosize=1;strokeColor=none;fillColor=none;" parent="1" vertex="1">
          <mxGeometry x="-810" y="170" width="170" height="30" as="geometry" />
        </mxCell>
        <mxCell id="fzz_oGgON8Rfu00_of95-2" value="도서대여 예약 신청을 할 수 있다" style="text;html=1;align=center;verticalAlign=middle;resizable=0;points=[];autosize=1;strokeColor=none;fillColor=none;" parent="1" vertex="1">
          <mxGeometry x="-456.5" y="322" width="200" height="30" as="geometry" />
        </mxCell>
        <mxCell id="mQBvw8MWruNdsQXdAvtr-1" value="[도서 서비스]" style="text;html=1;align=center;verticalAlign=middle;resizable=0;points=[];autosize=1;strokeColor=none;fillColor=none;" parent="1" vertex="1">
          <mxGeometry x="-805" y="130" width="90" height="30" as="geometry" />
        </mxCell>
        <mxCell id="mQBvw8MWruNdsQXdAvtr-2" value="[도서서비스]" style="text;html=1;align=center;verticalAlign=middle;resizable=0;points=[];autosize=1;strokeColor=none;fillColor=none;" parent="1" vertex="1">
          <mxGeometry x="-90" y="130" width="90" height="30" as="geometry" />
        </mxCell>
        <mxCell id="mQBvw8MWruNdsQXdAvtr-3" value="[인증 서비스]" style="text;html=1;align=center;verticalAlign=middle;resizable=0;points=[];autosize=1;strokeColor=none;fillColor=none;" parent="1" vertex="1">
          <mxGeometry x="-805" y="380" width="90" height="30" as="geometry" />
        </mxCell>
        <mxCell id="mQBvw8MWruNdsQXdAvtr-4" value="회원가입 요청시 사용자 입력정보를 받아 저장한다" style="text;html=1;align=center;verticalAlign=middle;resizable=0;points=[];autosize=1;strokeColor=none;fillColor=none;" parent="1" vertex="1">
          <mxGeometry x="-805" y="414" width="290" height="30" as="geometry" />
        </mxCell>
        <mxCell id="mQBvw8MWruNdsQXdAvtr-5" value="ID/PW 받아 확인후 로그인 처리를 할 수 있다" style="text;html=1;align=center;verticalAlign=middle;resizable=0;points=[];autosize=1;strokeColor=none;fillColor=none;" parent="1" vertex="1">
          <mxGeometry x="-805" y="444" width="260" height="30" as="geometry" />
        </mxCell>
        <mxCell id="mQBvw8MWruNdsQXdAvtr-6" value="로그아웃시 유지되고있는 사용자 정보는 제거된다" style="text;html=1;align=center;verticalAlign=middle;resizable=0;points=[];autosize=1;strokeColor=none;fillColor=none;" parent="1" vertex="1">
          <mxGeometry x="-805" y="474" width="290" height="30" as="geometry" />
        </mxCell>
        <mxCell id="mQBvw8MWruNdsQXdAvtr-7" value="로그인 이후에 회원정보 조회가 가능하다" style="text;html=1;align=center;verticalAlign=middle;resizable=0;points=[];autosize=1;strokeColor=none;fillColor=none;" parent="1" vertex="1">
          <mxGeometry x="-805" y="504" width="240" height="30" as="geometry" />
        </mxCell>
        <mxCell id="mQBvw8MWruNdsQXdAvtr-8" value="회원탈퇴 요청시 본인 확인후 회원정보 삭제" style="text;html=1;align=center;verticalAlign=middle;resizable=0;points=[];autosize=1;strokeColor=none;fillColor=none;" parent="1" vertex="1">
          <mxGeometry x="-805" y="534" width="260" height="30" as="geometry" />
        </mxCell>
        <mxCell id="mQBvw8MWruNdsQXdAvtr-9" value="[인증 서비스]" style="text;html=1;align=center;verticalAlign=middle;resizable=0;points=[];autosize=1;strokeColor=none;fillColor=none;" parent="1" vertex="1">
          <mxGeometry x="-809" y="940" width="90" height="30" as="geometry" />
        </mxCell>
        <mxCell id="mQBvw8MWruNdsQXdAvtr-10" value="회원가입 요청시 사용자 입력정보를 받아 저장한다" style="text;html=1;align=center;verticalAlign=middle;resizable=0;points=[];autosize=1;strokeColor=none;fillColor=none;" parent="1" vertex="1">
          <mxGeometry x="-809" y="974" width="290" height="30" as="geometry" />
        </mxCell>
        <mxCell id="mQBvw8MWruNdsQXdAvtr-11" value="ID/PW 받아 확인후 로그인 처리를 할 수 있다" style="text;html=1;align=center;verticalAlign=middle;resizable=0;points=[];autosize=1;strokeColor=none;fillColor=none;" parent="1" vertex="1">
          <mxGeometry x="-809" y="1004" width="260" height="30" as="geometry" />
        </mxCell>
        <mxCell id="mQBvw8MWruNdsQXdAvtr-12" value="로그아웃시 유지되고있는 사용자 정보는 제거된다" style="text;html=1;align=center;verticalAlign=middle;resizable=0;points=[];autosize=1;strokeColor=none;fillColor=none;" parent="1" vertex="1">
          <mxGeometry x="-809" y="1034" width="290" height="30" as="geometry" />
        </mxCell>
        <mxCell id="mQBvw8MWruNdsQXdAvtr-13" value="로그인 이후에 회원정보 조회가 가능하다" style="text;html=1;align=center;verticalAlign=middle;resizable=0;points=[];autosize=1;strokeColor=none;fillColor=none;" parent="1" vertex="1">
          <mxGeometry x="-809" y="1064" width="240" height="30" as="geometry" />
        </mxCell>
        <mxCell id="mQBvw8MWruNdsQXdAvtr-14" value="회원탈퇴 요청시 본인 확인후 회원정보 삭제" style="text;html=1;align=center;verticalAlign=middle;resizable=0;points=[];autosize=1;strokeColor=none;fillColor=none;" parent="1" vertex="1">
          <mxGeometry x="-809" y="1094" width="260" height="30" as="geometry" />
        </mxCell>
        <mxCell id="2-0ZHYHw7iI-56yjw9DP-1" value="[대여 서비스]" style="text;html=1;align=center;verticalAlign=middle;resizable=0;points=[];autosize=1;strokeColor=none;fillColor=none;" parent="1" vertex="1">
          <mxGeometry x="-443.5" y="130" width="90" height="30" as="geometry" />
        </mxCell>
        <mxCell id="ZPm6kXyxRqWN1L8tcGS6-1" value="도서를 검색할 수 있다" style="text;html=1;align=center;verticalAlign=middle;resizable=0;points=[];autosize=1;strokeColor=none;fillColor=none;" parent="1" vertex="1">
          <mxGeometry x="-809" y="790" width="140" height="30" as="geometry" />
        </mxCell>
        <mxCell id="ZPm6kXyxRqWN1L8tcGS6-2" value="[도서 서비스]" style="text;html=1;align=center;verticalAlign=middle;resizable=0;points=[];autosize=1;strokeColor=none;fillColor=none;" parent="1" vertex="1">
          <mxGeometry x="-809" y="760" width="90" height="30" as="geometry" />
        </mxCell>
        <mxCell id="ZPm6kXyxRqWN1L8tcGS6-4" value="도서를 등록할 수 있다" style="text;html=1;align=center;verticalAlign=middle;resizable=0;points=[];autosize=1;strokeColor=none;fillColor=none;" parent="1" vertex="1">
          <mxGeometry x="-809" y="820" width="140" height="30" as="geometry" />
        </mxCell>
        <mxCell id="ZPm6kXyxRqWN1L8tcGS6-5" value="도서정보를 수정할 수 있다" style="text;html=1;align=center;verticalAlign=middle;resizable=0;points=[];autosize=1;strokeColor=none;fillColor=none;" parent="1" vertex="1">
          <mxGeometry x="-814" y="850" width="170" height="30" as="geometry" />
        </mxCell>
        <mxCell id="ZPm6kXyxRqWN1L8tcGS6-6" value="도서정보를 삭제 할 수 있다" style="text;html=1;align=center;verticalAlign=middle;resizable=0;points=[];autosize=1;strokeColor=none;fillColor=none;" parent="1" vertex="1">
          <mxGeometry x="-814" y="880" width="170" height="30" as="geometry" />
        </mxCell>
        <mxCell id="o9xKNtfv6Qy1jSEaa3Py-1" value="[대여 서비스]" style="text;html=1;align=center;verticalAlign=middle;resizable=0;points=[];autosize=1;strokeColor=none;fillColor=none;" parent="1" vertex="1">
          <mxGeometry x="-447" y="760" width="90" height="30" as="geometry" />
        </mxCell>
        <mxCell id="o9xKNtfv6Qy1jSEaa3Py-2" value="도서대여 예약 신청를 취소 할 수 있다" style="text;html=1;align=center;verticalAlign=middle;resizable=0;points=[];autosize=1;strokeColor=none;fillColor=none;" parent="1" vertex="1">
          <mxGeometry x="-451.5" y="262" width="220" height="30" as="geometry" />
        </mxCell>
        <mxCell id="o9xKNtfv6Qy1jSEaa3Py-3" value="회원에 대한 도서대여 처리를 할 수 있다" style="text;html=1;align=center;verticalAlign=middle;resizable=0;points=[];autosize=1;strokeColor=none;fillColor=none;" parent="1" vertex="1">
          <mxGeometry x="-450" y="790" width="240" height="30" as="geometry" />
        </mxCell>
        <mxCell id="o9xKNtfv6Qy1jSEaa3Py-4" value="나의 도서대여 리스트를 확인할 수 있다" style="text;html=1;align=center;verticalAlign=middle;resizable=0;points=[];autosize=1;strokeColor=none;fillColor=none;" parent="1" vertex="1">
          <mxGeometry x="-453.5" y="170" width="230" height="30" as="geometry" />
        </mxCell>
        <mxCell id="o9xKNtfv6Qy1jSEaa3Py-5" value="도서대여 예약 순번을 확인 할 수 있다" style="text;html=1;align=center;verticalAlign=middle;resizable=0;points=[];autosize=1;strokeColor=none;fillColor=none;" parent="1" vertex="1">
          <mxGeometry x="-453.5" y="292" width="220" height="30" as="geometry" />
        </mxCell>
        <mxCell id="cuX1LPaLgk6f20LKmUTk-1" value="회원이 대여한 도서를 반납 처리 할 수 있다" style="text;html=1;align=center;verticalAlign=middle;resizable=0;points=[];autosize=1;strokeColor=none;fillColor=none;" parent="1" vertex="1">
          <mxGeometry x="-450" y="820" width="250" height="30" as="geometry" />
        </mxCell>
        <mxCell id="cuX1LPaLgk6f20LKmUTk-3" value="대여된 도서의 예약 정보를 조회할 수 있다" style="text;html=1;align=center;verticalAlign=middle;resizable=0;points=[];autosize=1;strokeColor=none;fillColor=none;" parent="1" vertex="1">
          <mxGeometry x="-452" y="850" width="250" height="30" as="geometry" />
        </mxCell>
        <mxCell id="cuX1LPaLgk6f20LKmUTk-5" value="대여된 도서 기간을 연장할 수 있다(3회)" style="text;html=1;align=center;verticalAlign=middle;resizable=0;points=[];autosize=1;strokeColor=none;fillColor=none;" parent="1" vertex="1">
          <mxGeometry x="-451.5" y="200" width="230" height="30" as="geometry" />
        </mxCell>
        <mxCell id="E00CYHEOYN3rLlaI8wjM-1" value="대여 불가능한 도서의 예약신청을 할 수 있다" style="text;html=1;align=center;verticalAlign=middle;resizable=0;points=[];autosize=1;strokeColor=none;fillColor=none;" parent="1" vertex="1">
          <mxGeometry x="-453.5" y="230" width="260" height="30" as="geometry" />
        </mxCell>
        <mxCell id="E00CYHEOYN3rLlaI8wjM-2" value="대여가능한 도서를 검색할 수 있다" style="text;html=1;align=center;verticalAlign=middle;resizable=0;points=[];autosize=1;strokeColor=none;fillColor=none;" parent="1" vertex="1">
          <mxGeometry x="-810" y="230" width="200" height="30" as="geometry" />
        </mxCell>
        <mxCell id="E00CYHEOYN3rLlaI8wjM-4" value="이름제목출판사키워드로&amp;nbsp; 도서 검색할 수 있다" style="text;html=1;align=center;verticalAlign=middle;resizable=0;points=[];autosize=1;strokeColor=none;fillColor=none;" parent="1" vertex="1">
          <mxGeometry x="-814" y="200" width="270" height="30" as="geometry" />
        </mxCell>
        <mxCell id="E00CYHEOYN3rLlaI8wjM-5" value="전체 도서를 검색할 수 있다" style="text;html=1;align=center;verticalAlign=middle;resizable=0;points=[];autosize=1;strokeColor=none;fillColor=none;" parent="1" vertex="1">
          <mxGeometry x="-90" y="170" width="170" height="30" as="geometry" />
        </mxCell>
        <mxCell id="E00CYHEOYN3rLlaI8wjM-7" value="대여불가능한 도서를 검색할 수 있다" style="text;html=1;align=center;verticalAlign=middle;resizable=0;points=[];autosize=1;strokeColor=none;fillColor=none;" parent="1" vertex="1">
          <mxGeometry x="-814" y="262" width="220" height="30" as="geometry" />
        </mxCell>
        <mxCell id="E00CYHEOYN3rLlaI8wjM-9" value="이름제목출판사키워드로&amp;nbsp; 도서 검색할 수 있다" style="text;html=1;align=center;verticalAlign=middle;resizable=0;points=[];autosize=1;strokeColor=none;fillColor=none;" parent="1" vertex="1">
          <mxGeometry x="-90" y="200" width="270" height="30" as="geometry" />
        </mxCell>
        <mxCell id="E00CYHEOYN3rLlaI8wjM-10" value="본인 확인을 위한 이메일인증을 할 수 있다" style="text;html=1;align=center;verticalAlign=middle;resizable=0;points=[];autosize=1;strokeColor=none;fillColor=none;" parent="1" vertex="1">
          <mxGeometry x="-804" y="564" width="250" height="30" as="geometry" />
        </mxCell>
        <mxCell id="E00CYHEOYN3rLlaI8wjM-11" value="본인 확인을 위한 휴대폰인증을 할 수 있다" style="text;html=1;align=center;verticalAlign=middle;resizable=0;points=[];autosize=1;strokeColor=none;fillColor=none;" parent="1" vertex="1">
          <mxGeometry x="-805" y="594" width="250" height="30" as="geometry" />
        </mxCell>
        <mxCell id="E00CYHEOYN3rLlaI8wjM-14" value="회원의 도서 반납시&amp;nbsp;최근 예약회원에게 도서대여가능 상태를 전달한다" style="text;html=1;align=center;verticalAlign=middle;resizable=0;points=[];autosize=1;strokeColor=none;fillColor=none;" parent="1" vertex="1">
          <mxGeometry x="-450" y="880" width="390" height="30" as="geometry" />
        </mxCell>
      </root>
    </mxGraphModel>
  </diagram>
  <diagram id="DVIYCdoWCnHOzDaxWkXW" name="02 [예제]USECASE">
    <mxGraphModel dx="1434" dy="780" grid="1" gridSize="10" guides="1" tooltips="1" connect="1" arrows="1" fold="1" page="1" pageScale="1" pageWidth="3300" pageHeight="4681" math="0" shadow="0">
      <root>
        <mxCell id="0" />
        <mxCell id="1" parent="0" />
        <mxCell id="k8Hj9xhFZyUb7TvIYciP-7" value="회원" style="shape=umlActor;verticalLabelPosition=bottom;verticalAlign=top;html=1;" parent="1" vertex="1">
          <mxGeometry x="350" y="570" width="30" height="60" as="geometry" />
        </mxCell>
        <mxCell id="k8Hj9xhFZyUb7TvIYciP-15" value="비회원" style="shape=umlActor;verticalLabelPosition=bottom;verticalAlign=top;html=1;" parent="1" vertex="1">
          <mxGeometry x="350" y="330" width="30" height="60" as="geometry" />
        </mxCell>
        <mxCell id="k8Hj9xhFZyUb7TvIYciP-17" value="도서 조회" style="ellipse;whiteSpace=wrap;html=1;" parent="1" vertex="1">
          <mxGeometry x="580" y="440" width="70" height="40" as="geometry" />
        </mxCell>
        <mxCell id="k8Hj9xhFZyUb7TvIYciP-20" value="" style="endArrow=classic;html=1;rounded=0;entryX=0;entryY=0.5;entryDx=0;entryDy=0;" parent="1" target="k8Hj9xhFZyUb7TvIYciP-17" edge="1">
          <mxGeometry width="50" height="50" relative="1" as="geometry">
            <mxPoint x="390" y="367.31707317073176" as="sourcePoint" />
            <mxPoint x="750" y="410" as="targetPoint" />
          </mxGeometry>
        </mxCell>
        <mxCell id="k8Hj9xhFZyUb7TvIYciP-21" value="" style="endArrow=classic;html=1;rounded=0;entryX=0.043;entryY=0.75;entryDx=0;entryDy=0;entryPerimeter=0;" parent="1" source="k8Hj9xhFZyUb7TvIYciP-7" target="k8Hj9xhFZyUb7TvIYciP-17" edge="1">
          <mxGeometry width="50" height="50" relative="1" as="geometry">
            <mxPoint x="400" y="370" as="sourcePoint" />
            <mxPoint x="590" y="370" as="targetPoint" />
          </mxGeometry>
        </mxCell>
        <mxCell id="sojlN6vcBwIrXqWm1OQ4-2" value="USE" style="edgeLabel;html=1;align=center;verticalAlign=middle;resizable=0;points=[];" vertex="1" connectable="0" parent="k8Hj9xhFZyUb7TvIYciP-21">
          <mxGeometry x="0.0175" y="1" relative="1" as="geometry">
            <mxPoint as="offset" />
          </mxGeometry>
        </mxCell>
        <mxCell id="k8Hj9xhFZyUb7TvIYciP-24" value="인증" style="ellipse;whiteSpace=wrap;html=1;" parent="1" vertex="1">
          <mxGeometry x="760" y="340" width="70" height="40" as="geometry" />
        </mxCell>
        <mxCell id="k8Hj9xhFZyUb7TvIYciP-27" value="사서" style="shape=umlActor;verticalLabelPosition=bottom;verticalAlign=top;html=1;" parent="1" vertex="1">
          <mxGeometry x="1280" y="345" width="30" height="60" as="geometry" />
        </mxCell>
        <mxCell id="k8Hj9xhFZyUb7TvIYciP-28" value="도서 관리" style="ellipse;whiteSpace=wrap;html=1;" parent="1" vertex="1">
          <mxGeometry x="1030" y="290" width="70" height="40" as="geometry" />
        </mxCell>
        <mxCell id="k8Hj9xhFZyUb7TvIYciP-32" value="회원 관리" style="ellipse;whiteSpace=wrap;html=1;" parent="1" vertex="1">
          <mxGeometry x="1030" y="420" width="70" height="40" as="geometry" />
        </mxCell>
        <mxCell id="k8Hj9xhFZyUb7TvIYciP-33" value="" style="endArrow=classic;html=1;rounded=0;entryX=1;entryY=0.75;entryDx=0;entryDy=0;entryPerimeter=0;" parent="1" source="k8Hj9xhFZyUb7TvIYciP-27" target="k8Hj9xhFZyUb7TvIYciP-28" edge="1">
          <mxGeometry width="50" height="50" relative="1" as="geometry">
            <mxPoint x="400" y="279.9999999999999" as="sourcePoint" />
            <mxPoint x="590" y="279.9999999999999" as="targetPoint" />
          </mxGeometry>
        </mxCell>
        <mxCell id="k8Hj9xhFZyUb7TvIYciP-34" value="" style="endArrow=classic;html=1;rounded=0;entryX=1;entryY=0.5;entryDx=0;entryDy=0;" parent="1" source="k8Hj9xhFZyUb7TvIYciP-27" target="k8Hj9xhFZyUb7TvIYciP-32" edge="1">
          <mxGeometry width="50" height="50" relative="1" as="geometry">
            <mxPoint x="1260" y="370" as="sourcePoint" />
            <mxPoint x="1110" y="329.9999999999999" as="targetPoint" />
          </mxGeometry>
        </mxCell>
        <mxCell id="k8Hj9xhFZyUb7TvIYciP-35" value="&amp;lt;&amp;lt;include&amp;gt;&amp;gt;" style="endArrow=open;endSize=12;dashed=1;html=1;rounded=0;exitX=0;exitY=0.5;exitDx=0;exitDy=0;entryX=1;entryY=0.5;entryDx=0;entryDy=0;" parent="1" source="k8Hj9xhFZyUb7TvIYciP-32" target="k8Hj9xhFZyUb7TvIYciP-24" edge="1">
          <mxGeometry width="160" relative="1" as="geometry">
            <mxPoint x="660" y="460" as="sourcePoint" />
            <mxPoint x="770.2799999999997" y="375.44000000000005" as="targetPoint" />
          </mxGeometry>
        </mxCell>
        <mxCell id="k8Hj9xhFZyUb7TvIYciP-36" value="&amp;lt;&amp;lt;include&amp;gt;&amp;gt;" style="endArrow=open;endSize=12;dashed=1;html=1;rounded=0;exitX=0.024;exitY=0.658;exitDx=0;exitDy=0;exitPerimeter=0;" parent="1" source="k8Hj9xhFZyUb7TvIYciP-28" edge="1">
          <mxGeometry width="160" relative="1" as="geometry">
            <mxPoint x="1040" y="450" as="sourcePoint" />
            <mxPoint x="830" y="360" as="targetPoint" />
          </mxGeometry>
        </mxCell>
        <mxCell id="EQv8tExUkJFSn41ABTpx-3" value="추가" style="ellipse;whiteSpace=wrap;html=1;" parent="1" vertex="1">
          <mxGeometry x="1030" y="220" width="40" height="40" as="geometry" />
        </mxCell>
        <mxCell id="EQv8tExUkJFSn41ABTpx-4" value="수정" style="ellipse;whiteSpace=wrap;html=1;" parent="1" vertex="1">
          <mxGeometry x="1070" y="220" width="40" height="40" as="geometry" />
        </mxCell>
        <mxCell id="EQv8tExUkJFSn41ABTpx-5" value="삭제" style="ellipse;whiteSpace=wrap;html=1;" parent="1" vertex="1">
          <mxGeometry x="1110" y="220" width="40" height="40" as="geometry" />
        </mxCell>
        <mxCell id="EQ6SyKmEfCM1zIw6xuts-2" value="" style="edgeStyle=orthogonalEdgeStyle;rounded=0;orthogonalLoop=1;jettySize=auto;html=1;endArrow=block;endFill=1;" parent="1" source="EQv8tExUkJFSn41ABTpx-12" target="k8Hj9xhFZyUb7TvIYciP-17" edge="1">
          <mxGeometry relative="1" as="geometry" />
        </mxCell>
        <mxCell id="EQv8tExUkJFSn41ABTpx-12" value="키워드" style="ellipse;whiteSpace=wrap;html=1;" parent="1" vertex="1">
          <mxGeometry x="630" y="355" width="40" height="40" as="geometry" />
        </mxCell>
        <mxCell id="EQ6SyKmEfCM1zIw6xuts-1" value="" style="edgeStyle=orthogonalEdgeStyle;rounded=0;orthogonalLoop=1;jettySize=auto;html=1;endArrow=block;endFill=1;" parent="1" source="EQv8tExUkJFSn41ABTpx-13" target="k8Hj9xhFZyUb7TvIYciP-17" edge="1">
          <mxGeometry relative="1" as="geometry" />
        </mxCell>
        <mxCell id="EQv8tExUkJFSn41ABTpx-13" value="전체" style="ellipse;whiteSpace=wrap;html=1;" parent="1" vertex="1">
          <mxGeometry x="560" y="355" width="40" height="40" as="geometry" />
        </mxCell>
        <mxCell id="DboR4HUlfWze3812EF0Y-1" value="대여 관리" style="ellipse;whiteSpace=wrap;html=1;" parent="1" vertex="1">
          <mxGeometry x="1030" y="590" width="70" height="40" as="geometry" />
        </mxCell>
        <mxCell id="DboR4HUlfWze3812EF0Y-4" value="제목" style="ellipse;whiteSpace=wrap;html=1;" parent="1" vertex="1">
          <mxGeometry x="630" y="290" width="40" height="40" as="geometry" />
        </mxCell>
        <mxCell id="DboR4HUlfWze3812EF0Y-5" value="출판사" style="ellipse;whiteSpace=wrap;html=1;" parent="1" vertex="1">
          <mxGeometry x="590" y="290" width="40" height="40" as="geometry" />
        </mxCell>
        <mxCell id="DboR4HUlfWze3812EF0Y-6" value="대여&lt;br&gt;여부" style="ellipse;whiteSpace=wrap;html=1;" parent="1" vertex="1">
          <mxGeometry x="670" y="290" width="40" height="40" as="geometry" />
        </mxCell>
        <mxCell id="DboR4HUlfWze3812EF0Y-9" value="" style="endArrow=classic;html=1;rounded=0;entryX=1;entryY=0;entryDx=0;entryDy=0;" parent="1" source="k8Hj9xhFZyUb7TvIYciP-27" target="DboR4HUlfWze3812EF0Y-1" edge="1">
          <mxGeometry width="50" height="50" relative="1" as="geometry">
            <mxPoint x="1290" y="390" as="sourcePoint" />
            <mxPoint x="1110" y="450" as="targetPoint" />
          </mxGeometry>
        </mxCell>
        <mxCell id="DboR4HUlfWze3812EF0Y-10" value="대여" style="ellipse;whiteSpace=wrap;html=1;" parent="1" vertex="1">
          <mxGeometry x="985" y="660" width="40" height="40" as="geometry" />
        </mxCell>
        <mxCell id="DboR4HUlfWze3812EF0Y-11" value="반납" style="ellipse;whiteSpace=wrap;html=1;" parent="1" vertex="1">
          <mxGeometry x="1025" y="660" width="40" height="40" as="geometry" />
        </mxCell>
        <mxCell id="DboR4HUlfWze3812EF0Y-13" value="예약&lt;br&gt;취소" style="ellipse;whiteSpace=wrap;html=1;" parent="1" vertex="1">
          <mxGeometry x="1105" y="660" width="40" height="40" as="geometry" />
        </mxCell>
        <mxCell id="DboR4HUlfWze3812EF0Y-12" value="예약&lt;br&gt;신청" style="ellipse;whiteSpace=wrap;html=1;" parent="1" vertex="1">
          <mxGeometry x="1065" y="660" width="40" height="40" as="geometry" />
        </mxCell>
        <mxCell id="3dWnSGP8neYOw63LenoP-7" value="조회" style="ellipse;whiteSpace=wrap;html=1;" parent="1" vertex="1">
          <mxGeometry x="990" y="220" width="40" height="40" as="geometry" />
        </mxCell>
        <mxCell id="3dWnSGP8neYOw63LenoP-8" value="대여예약" style="ellipse;whiteSpace=wrap;html=1;" parent="1" vertex="1">
          <mxGeometry x="580" y="580" width="70" height="40" as="geometry" />
        </mxCell>
        <mxCell id="3dWnSGP8neYOw63LenoP-10" value="나의정보" style="ellipse;whiteSpace=wrap;html=1;" parent="1" vertex="1">
          <mxGeometry x="580" y="690" width="70" height="40" as="geometry" />
        </mxCell>
        <mxCell id="OvHJPmmNOJOJZa_5gyeo-2" value="" style="endArrow=classic;html=1;rounded=0;" parent="1" target="3dWnSGP8neYOw63LenoP-8" edge="1">
          <mxGeometry width="50" height="50" relative="1" as="geometry">
            <mxPoint x="380" y="590" as="sourcePoint" />
            <mxPoint x="593" y="480" as="targetPoint" />
          </mxGeometry>
        </mxCell>
        <mxCell id="OvHJPmmNOJOJZa_5gyeo-3" value="" style="endArrow=classic;html=1;rounded=0;entryX=-0.014;entryY=0.325;entryDx=0;entryDy=0;entryPerimeter=0;" parent="1" target="3dWnSGP8neYOw63LenoP-10" edge="1">
          <mxGeometry width="50" height="50" relative="1" as="geometry">
            <mxPoint x="380" y="590" as="sourcePoint" />
            <mxPoint x="590" y="609" as="targetPoint" />
          </mxGeometry>
        </mxCell>
        <mxCell id="OvHJPmmNOJOJZa_5gyeo-4" value="&amp;lt;&amp;lt;include&amp;gt;&amp;gt;" style="endArrow=open;endSize=12;dashed=1;html=1;rounded=0;exitX=0.957;exitY=0.125;exitDx=0;exitDy=0;exitPerimeter=0;" parent="1" source="3dWnSGP8neYOw63LenoP-8" edge="1">
          <mxGeometry x="-0.2557" y="15" width="160" relative="1" as="geometry">
            <mxPoint x="650" y="596" as="sourcePoint" />
            <mxPoint x="790" y="380" as="targetPoint" />
            <mxPoint as="offset" />
          </mxGeometry>
        </mxCell>
        <mxCell id="OvHJPmmNOJOJZa_5gyeo-6" value="개인정보" style="ellipse;whiteSpace=wrap;html=1;" parent="1" vertex="1">
          <mxGeometry x="554.72" y="750" width="40" height="40" as="geometry" />
        </mxCell>
        <mxCell id="OvHJPmmNOJOJZa_5gyeo-7" value="대여정보" style="ellipse;whiteSpace=wrap;html=1;" parent="1" vertex="1">
          <mxGeometry x="644.72" y="750" width="38.56" height="38" as="geometry" />
        </mxCell>
        <mxCell id="OvHJPmmNOJOJZa_5gyeo-8" value="예약정보" style="ellipse;whiteSpace=wrap;html=1;" parent="1" vertex="1">
          <mxGeometry x="600.72" y="750" width="39" height="40" as="geometry" />
        </mxCell>
        <mxCell id="OvHJPmmNOJOJZa_5gyeo-10" value="&amp;lt;&amp;lt;include&amp;gt;&amp;gt;" style="endArrow=open;endSize=12;dashed=1;html=1;rounded=0;exitX=1;exitY=0;exitDx=0;exitDy=0;" parent="1" edge="1">
          <mxGeometry x="0.1027" y="-19" width="160" relative="1" as="geometry">
            <mxPoint x="637.9987373415292" y="696.8578643762694" as="sourcePoint" />
            <mxPoint x="788.25" y="381" as="targetPoint" />
            <mxPoint as="offset" />
          </mxGeometry>
        </mxCell>
        <mxCell id="sojlN6vcBwIrXqWm1OQ4-1" value="도서관리시스템" style="shape=umlFrame;whiteSpace=wrap;html=1;pointerEvents=0;width=100;height=50;" vertex="1" parent="1">
          <mxGeometry x="490" y="180" width="730" height="640" as="geometry" />
        </mxCell>
      </root>
    </mxGraphModel>
  </diagram>
  <diagram id="OFVhZtupac3usXIFOrWX" name="03 [예제] 유스케이스 명세서">
    <mxGraphModel dx="1434" dy="1949" grid="1" gridSize="10" guides="1" tooltips="1" connect="1" arrows="1" fold="1" page="1" pageScale="1" pageWidth="827" pageHeight="1169" math="0" shadow="0">
      <root>
        <mxCell id="0" />
        <mxCell id="1" parent="0" />
        <mxCell id="cgBnffwwz1y63k7dSofq-1" value="유스케이스명 : 회원가입&lt;div&gt;&lt;br&gt;&lt;/div&gt;&lt;div&gt;목표 : 비회원이 회원가입을 할 수 있도록 시스템을 통해 회원가입 절차를 완료한다&lt;br&gt;&lt;div&gt;&lt;br&gt;&lt;/div&gt;&lt;/div&gt;&lt;div&gt;엑터 : 비회원&lt;/div&gt;&lt;div&gt;&lt;br&gt;&lt;/div&gt;&lt;div&gt;사전 조건 : 메인페이지 에서 회원가입 버튼을 클릭하여 회원가입 페이지로 이동한다&lt;/div&gt;&lt;div&gt;&lt;br&gt;&lt;/div&gt;&lt;div&gt;사후 처리 : 회원정상 가입 이후 로그인 페이지로 이동&lt;/div&gt;&lt;div&gt;&lt;br&gt;&lt;/div&gt;&lt;div&gt;기본흐름 :&amp;nbsp;&lt;/div&gt;&lt;div&gt;&lt;br&gt;&lt;/div&gt;&lt;div&gt;1 비회원이 계정 입력란에 email 계정을 입력하고 인증 버튼을 클릭한다&lt;/div&gt;&lt;div&gt;2 시스템은 해당 계정으로 인증코드를 전송한다&lt;/div&gt;&lt;div&gt;3 시스템은 비회원이 보는 페이지에 인증코드 확인폼을 활성화 한다&lt;/div&gt;&lt;div&gt;4 회원은 이메일 인증코드를 인증코드 확인폼에 입력한 뒤 인증확인 버튼을 클릭한다&lt;/div&gt;&lt;div&gt;5 시스템은 인증확인 처리를 한뒤 인증확인 메시지를 전달한다&lt;/div&gt;&lt;div&gt;6 이름/연락처/주소/를 입력하고 회원가입 버튼을 클릭한다&lt;/div&gt;&lt;div&gt;7 회원가입 처리 이후 메시지를 전달한다&lt;/div&gt;&lt;div&gt;8 회원이 메시지 확인 버튼을 클릭한다&lt;/div&gt;&lt;div&gt;9 로그인 페이지로 이동한다&lt;/div&gt;&lt;div&gt;&lt;br&gt;&lt;/div&gt;&lt;div&gt;&lt;br&gt;&lt;/div&gt;&lt;div&gt;대안흐름 :&amp;nbsp;&lt;br&gt;&lt;/div&gt;&lt;div&gt;&lt;br&gt;&lt;/div&gt;&lt;div&gt;취소버튼를 입력하면 메인화면이로 이동&lt;br&gt;&lt;/div&gt;&lt;div&gt;&lt;br&gt;&lt;/div&gt;&lt;div&gt;&lt;br&gt;&lt;/div&gt;&lt;div&gt;예외흐름 :&amp;nbsp;&lt;/div&gt;&lt;div&gt;&lt;br&gt;&lt;/div&gt;&lt;div&gt;1a 동일한 계정이 있는경우&lt;/div&gt;&lt;div&gt;&lt;span style=&quot;white-space: pre;&quot;&gt;&#x9;&lt;/span&gt;시스템은 &#39;동일한 계정이 있습니다&#39; 라는 메시지를 비회원에게 전달&lt;br&gt;&lt;/div&gt;&lt;div&gt;&lt;br&gt;&lt;/div&gt;&lt;div&gt;1b 인증을 하지않고 회원가입을 하려는 경우&lt;/div&gt;&lt;div&gt;&lt;span style=&quot;white-space: pre;&quot;&gt;&#x9;&lt;/span&gt;시스템은 &#39;인증이 되지 않았습니다&#39; 라는 메시지를 비회원에게 전달&lt;br&gt;&lt;/div&gt;&lt;div&gt;&lt;br&gt;&lt;/div&gt;&lt;div&gt;1c 인증코드 입력 누락시&lt;br&gt;&lt;/div&gt;&lt;div&gt;&lt;span style=&quot;white-space: pre;&quot;&gt;&#x9;&lt;/span&gt;&#39;인증처리를 위한 code를 입력하세요&#39; 메시지를 비회원에게 전달&lt;br&gt;&lt;/div&gt;&lt;div&gt;&lt;br&gt;&lt;/div&gt;&lt;div&gt;&lt;br&gt;&lt;/div&gt;&lt;div&gt;&lt;span style=&quot;background-color: initial;&quot;&gt;1d email형식에 맞지 않는 주소 입력&lt;/span&gt;&lt;br&gt;&lt;/div&gt;&lt;div&gt;&lt;span style=&quot;white-space: pre;&quot;&gt;&#x9;&lt;/span&gt;&#39;올바른 이메일 형식을 입력하세요&#39; 라는 메시지를 비회원에게 전달&lt;br&gt;&lt;/div&gt;&lt;div&gt;&lt;br&gt;&lt;/div&gt;&lt;div&gt;6a 이름 누락시&lt;/div&gt;&lt;div&gt;&lt;br&gt;&lt;/div&gt;&lt;div&gt;&lt;br&gt;&lt;/div&gt;&lt;div&gt;&lt;br&gt;&lt;/div&gt;&lt;div&gt;&lt;span style=&quot;white-space: pre;&quot;&gt;&#x9;&lt;/span&gt;&lt;br&gt;&lt;/div&gt;&lt;div&gt;&lt;br&gt;&lt;/div&gt;&lt;div&gt;&lt;br&gt;&lt;/div&gt;&lt;div&gt;&amp;nbsp;&lt;/div&gt;&lt;div&gt;&lt;br&gt;&lt;/div&gt;" style="text;html=1;align=left;verticalAlign=middle;resizable=0;points=[];autosize=1;strokeColor=none;fillColor=none;" parent="1" vertex="1">
          <mxGeometry x="30" y="-430" width="470" height="760" as="geometry" />
        </mxCell>
        <mxCell id="cgBnffwwz1y63k7dSofq-14" value="유스케이스명 : 회원가입" style="shape=table;startSize=30;container=1;collapsible=1;childLayout=tableLayout;fixedRows=1;rowLines=0;fontStyle=1;align=center;resizeLast=1;html=1;" parent="1" vertex="1">
          <mxGeometry x="550" y="-410" width="510" height="390" as="geometry" />
        </mxCell>
        <mxCell id="cgBnffwwz1y63k7dSofq-15" value="" style="shape=tableRow;horizontal=0;startSize=0;swimlaneHead=0;swimlaneBody=0;fillColor=none;collapsible=0;dropTarget=0;points=[[0,0.5],[1,0.5]];portConstraint=eastwest;top=0;left=0;right=0;bottom=1;strokeColor=default;verticalAlign=middle;fontStyle=0" parent="cgBnffwwz1y63k7dSofq-14" vertex="1">
          <mxGeometry y="30" width="510" height="30" as="geometry" />
        </mxCell>
        <mxCell id="cgBnffwwz1y63k7dSofq-16" value="목표" style="shape=partialRectangle;connectable=0;fillColor=none;top=0;left=0;bottom=0;right=0;fontStyle=1;overflow=hidden;whiteSpace=wrap;html=1;" parent="cgBnffwwz1y63k7dSofq-15" vertex="1">
          <mxGeometry width="60" height="30" as="geometry">
            <mxRectangle width="60" height="30" as="alternateBounds" />
          </mxGeometry>
        </mxCell>
        <mxCell id="cgBnffwwz1y63k7dSofq-17" value="&lt;span style=&quot;font-weight: 400; text-wrap: nowrap;&quot;&gt;비회원이 회원가입을 할 수 있도록 시스템을 통해 회원가입 절차를 완료한다&lt;/span&gt;" style="shape=partialRectangle;connectable=0;fillColor=none;top=0;left=0;bottom=0;right=0;align=left;spacingLeft=6;fontStyle=1;overflow=hidden;whiteSpace=wrap;html=1;" parent="cgBnffwwz1y63k7dSofq-15" vertex="1">
          <mxGeometry x="60" width="450" height="30" as="geometry">
            <mxRectangle width="450" height="30" as="alternateBounds" />
          </mxGeometry>
        </mxCell>
        <mxCell id="cgBnffwwz1y63k7dSofq-43" value="" style="shape=tableRow;horizontal=0;startSize=0;swimlaneHead=0;swimlaneBody=0;fillColor=none;collapsible=0;dropTarget=0;points=[[0,0.5],[1,0.5]];portConstraint=eastwest;top=0;left=0;right=0;bottom=1;" parent="cgBnffwwz1y63k7dSofq-14" vertex="1">
          <mxGeometry y="60" width="510" height="30" as="geometry" />
        </mxCell>
        <mxCell id="cgBnffwwz1y63k7dSofq-44" value="엑터" style="shape=partialRectangle;connectable=0;fillColor=none;top=0;left=0;bottom=0;right=0;fontStyle=1;overflow=hidden;whiteSpace=wrap;html=1;" parent="cgBnffwwz1y63k7dSofq-43" vertex="1">
          <mxGeometry width="60" height="30" as="geometry">
            <mxRectangle width="60" height="30" as="alternateBounds" />
          </mxGeometry>
        </mxCell>
        <mxCell id="cgBnffwwz1y63k7dSofq-45" value="비회원" style="shape=partialRectangle;connectable=0;fillColor=none;top=0;left=0;bottom=0;right=0;align=left;spacingLeft=6;fontStyle=0;overflow=hidden;whiteSpace=wrap;html=1;" parent="cgBnffwwz1y63k7dSofq-43" vertex="1">
          <mxGeometry x="60" width="450" height="30" as="geometry">
            <mxRectangle width="450" height="30" as="alternateBounds" />
          </mxGeometry>
        </mxCell>
        <mxCell id="cgBnffwwz1y63k7dSofq-46" value="" style="shape=tableRow;horizontal=0;startSize=0;swimlaneHead=0;swimlaneBody=0;fillColor=none;collapsible=0;dropTarget=0;points=[[0,0.5],[1,0.5]];portConstraint=eastwest;top=0;left=0;right=0;bottom=1;" parent="cgBnffwwz1y63k7dSofq-14" vertex="1">
          <mxGeometry y="90" width="510" height="30" as="geometry" />
        </mxCell>
        <mxCell id="cgBnffwwz1y63k7dSofq-47" value="사전 조건" style="shape=partialRectangle;connectable=0;fillColor=none;top=0;left=0;bottom=0;right=0;fontStyle=1;overflow=hidden;whiteSpace=wrap;html=1;" parent="cgBnffwwz1y63k7dSofq-46" vertex="1">
          <mxGeometry width="60" height="30" as="geometry">
            <mxRectangle width="60" height="30" as="alternateBounds" />
          </mxGeometry>
        </mxCell>
        <mxCell id="cgBnffwwz1y63k7dSofq-48" value="메인페이지에서 회원가입 버튼을 클릭하여 회원가입 페이지로 이동한다" style="shape=partialRectangle;connectable=0;fillColor=none;top=0;left=0;bottom=0;right=0;align=left;spacingLeft=6;fontStyle=0;overflow=hidden;whiteSpace=wrap;html=1;" parent="cgBnffwwz1y63k7dSofq-46" vertex="1">
          <mxGeometry x="60" width="450" height="30" as="geometry">
            <mxRectangle width="450" height="30" as="alternateBounds" />
          </mxGeometry>
        </mxCell>
        <mxCell id="cgBnffwwz1y63k7dSofq-18" value="" style="shape=tableRow;horizontal=0;startSize=0;swimlaneHead=0;swimlaneBody=0;fillColor=none;collapsible=0;dropTarget=0;points=[[0,0.5],[1,0.5]];portConstraint=eastwest;top=0;left=0;right=0;bottom=0;" parent="cgBnffwwz1y63k7dSofq-14" vertex="1">
          <mxGeometry y="120" width="510" height="30" as="geometry" />
        </mxCell>
        <mxCell id="cgBnffwwz1y63k7dSofq-19" value="" style="shape=partialRectangle;connectable=0;fillColor=none;top=0;left=0;bottom=0;right=0;editable=1;overflow=hidden;whiteSpace=wrap;html=1;" parent="cgBnffwwz1y63k7dSofq-18" vertex="1">
          <mxGeometry width="60" height="30" as="geometry">
            <mxRectangle width="60" height="30" as="alternateBounds" />
          </mxGeometry>
        </mxCell>
        <mxCell id="cgBnffwwz1y63k7dSofq-20" value="Row 1" style="shape=partialRectangle;connectable=0;fillColor=none;top=0;left=0;bottom=0;right=0;align=left;spacingLeft=6;overflow=hidden;whiteSpace=wrap;html=1;" parent="cgBnffwwz1y63k7dSofq-18" vertex="1">
          <mxGeometry x="60" width="450" height="30" as="geometry">
            <mxRectangle width="450" height="30" as="alternateBounds" />
          </mxGeometry>
        </mxCell>
        <mxCell id="cgBnffwwz1y63k7dSofq-21" value="" style="shape=tableRow;horizontal=0;startSize=0;swimlaneHead=0;swimlaneBody=0;fillColor=none;collapsible=0;dropTarget=0;points=[[0,0.5],[1,0.5]];portConstraint=eastwest;top=0;left=0;right=0;bottom=0;" parent="cgBnffwwz1y63k7dSofq-14" vertex="1">
          <mxGeometry y="150" width="510" height="30" as="geometry" />
        </mxCell>
        <mxCell id="cgBnffwwz1y63k7dSofq-22" value="" style="shape=partialRectangle;connectable=0;fillColor=none;top=0;left=0;bottom=0;right=0;editable=1;overflow=hidden;whiteSpace=wrap;html=1;" parent="cgBnffwwz1y63k7dSofq-21" vertex="1">
          <mxGeometry width="60" height="30" as="geometry">
            <mxRectangle width="60" height="30" as="alternateBounds" />
          </mxGeometry>
        </mxCell>
        <mxCell id="cgBnffwwz1y63k7dSofq-23" value="Row 2" style="shape=partialRectangle;connectable=0;fillColor=none;top=0;left=0;bottom=0;right=0;align=left;spacingLeft=6;overflow=hidden;whiteSpace=wrap;html=1;" parent="cgBnffwwz1y63k7dSofq-21" vertex="1">
          <mxGeometry x="60" width="450" height="30" as="geometry">
            <mxRectangle width="450" height="30" as="alternateBounds" />
          </mxGeometry>
        </mxCell>
        <mxCell id="cgBnffwwz1y63k7dSofq-27" value="" style="shape=tableRow;horizontal=0;startSize=0;swimlaneHead=0;swimlaneBody=0;fillColor=none;collapsible=0;dropTarget=0;points=[[0,0.5],[1,0.5]];portConstraint=eastwest;top=0;left=0;right=0;bottom=0;" parent="cgBnffwwz1y63k7dSofq-14" vertex="1">
          <mxGeometry y="180" width="510" height="30" as="geometry" />
        </mxCell>
        <mxCell id="cgBnffwwz1y63k7dSofq-28" value="" style="shape=partialRectangle;connectable=0;fillColor=none;top=0;left=0;bottom=0;right=0;editable=1;overflow=hidden;whiteSpace=wrap;html=1;" parent="cgBnffwwz1y63k7dSofq-27" vertex="1">
          <mxGeometry width="60" height="30" as="geometry">
            <mxRectangle width="60" height="30" as="alternateBounds" />
          </mxGeometry>
        </mxCell>
        <mxCell id="cgBnffwwz1y63k7dSofq-29" value="Row 2" style="shape=partialRectangle;connectable=0;fillColor=none;top=0;left=0;bottom=0;right=0;align=left;spacingLeft=6;overflow=hidden;whiteSpace=wrap;html=1;" parent="cgBnffwwz1y63k7dSofq-27" vertex="1">
          <mxGeometry x="60" width="450" height="30" as="geometry">
            <mxRectangle width="450" height="30" as="alternateBounds" />
          </mxGeometry>
        </mxCell>
        <mxCell id="cgBnffwwz1y63k7dSofq-30" value="" style="shape=tableRow;horizontal=0;startSize=0;swimlaneHead=0;swimlaneBody=0;fillColor=none;collapsible=0;dropTarget=0;points=[[0,0.5],[1,0.5]];portConstraint=eastwest;top=0;left=0;right=0;bottom=0;" parent="cgBnffwwz1y63k7dSofq-14" vertex="1">
          <mxGeometry y="210" width="510" height="30" as="geometry" />
        </mxCell>
        <mxCell id="cgBnffwwz1y63k7dSofq-31" value="" style="shape=partialRectangle;connectable=0;fillColor=none;top=0;left=0;bottom=0;right=0;editable=1;overflow=hidden;whiteSpace=wrap;html=1;" parent="cgBnffwwz1y63k7dSofq-30" vertex="1">
          <mxGeometry width="60" height="30" as="geometry">
            <mxRectangle width="60" height="30" as="alternateBounds" />
          </mxGeometry>
        </mxCell>
        <mxCell id="cgBnffwwz1y63k7dSofq-32" value="Row 2" style="shape=partialRectangle;connectable=0;fillColor=none;top=0;left=0;bottom=0;right=0;align=left;spacingLeft=6;overflow=hidden;whiteSpace=wrap;html=1;" parent="cgBnffwwz1y63k7dSofq-30" vertex="1">
          <mxGeometry x="60" width="450" height="30" as="geometry">
            <mxRectangle width="450" height="30" as="alternateBounds" />
          </mxGeometry>
        </mxCell>
        <mxCell id="cgBnffwwz1y63k7dSofq-33" value="" style="shape=tableRow;horizontal=0;startSize=0;swimlaneHead=0;swimlaneBody=0;fillColor=none;collapsible=0;dropTarget=0;points=[[0,0.5],[1,0.5]];portConstraint=eastwest;top=0;left=0;right=0;bottom=0;" parent="cgBnffwwz1y63k7dSofq-14" vertex="1">
          <mxGeometry y="240" width="510" height="30" as="geometry" />
        </mxCell>
        <mxCell id="cgBnffwwz1y63k7dSofq-34" value="" style="shape=partialRectangle;connectable=0;fillColor=none;top=0;left=0;bottom=0;right=0;editable=1;overflow=hidden;whiteSpace=wrap;html=1;" parent="cgBnffwwz1y63k7dSofq-33" vertex="1">
          <mxGeometry width="60" height="30" as="geometry">
            <mxRectangle width="60" height="30" as="alternateBounds" />
          </mxGeometry>
        </mxCell>
        <mxCell id="cgBnffwwz1y63k7dSofq-35" value="Row 2" style="shape=partialRectangle;connectable=0;fillColor=none;top=0;left=0;bottom=0;right=0;align=left;spacingLeft=6;overflow=hidden;whiteSpace=wrap;html=1;" parent="cgBnffwwz1y63k7dSofq-33" vertex="1">
          <mxGeometry x="60" width="450" height="30" as="geometry">
            <mxRectangle width="450" height="30" as="alternateBounds" />
          </mxGeometry>
        </mxCell>
        <mxCell id="cgBnffwwz1y63k7dSofq-36" value="" style="shape=tableRow;horizontal=0;startSize=0;swimlaneHead=0;swimlaneBody=0;fillColor=none;collapsible=0;dropTarget=0;points=[[0,0.5],[1,0.5]];portConstraint=eastwest;top=0;left=0;right=0;bottom=0;" parent="cgBnffwwz1y63k7dSofq-14" vertex="1">
          <mxGeometry y="270" width="510" height="30" as="geometry" />
        </mxCell>
        <mxCell id="cgBnffwwz1y63k7dSofq-37" value="" style="shape=partialRectangle;connectable=0;fillColor=none;top=0;left=0;bottom=0;right=0;editable=1;overflow=hidden;whiteSpace=wrap;html=1;" parent="cgBnffwwz1y63k7dSofq-36" vertex="1">
          <mxGeometry width="60" height="30" as="geometry">
            <mxRectangle width="60" height="30" as="alternateBounds" />
          </mxGeometry>
        </mxCell>
        <mxCell id="cgBnffwwz1y63k7dSofq-38" value="Row 2" style="shape=partialRectangle;connectable=0;fillColor=none;top=0;left=0;bottom=0;right=0;align=left;spacingLeft=6;overflow=hidden;whiteSpace=wrap;html=1;" parent="cgBnffwwz1y63k7dSofq-36" vertex="1">
          <mxGeometry x="60" width="450" height="30" as="geometry">
            <mxRectangle width="450" height="30" as="alternateBounds" />
          </mxGeometry>
        </mxCell>
        <mxCell id="cgBnffwwz1y63k7dSofq-39" value="" style="shape=tableRow;horizontal=0;startSize=0;swimlaneHead=0;swimlaneBody=0;fillColor=none;collapsible=0;dropTarget=0;points=[[0,0.5],[1,0.5]];portConstraint=eastwest;top=0;left=0;right=0;bottom=0;" parent="cgBnffwwz1y63k7dSofq-14" vertex="1">
          <mxGeometry y="300" width="510" height="90" as="geometry" />
        </mxCell>
        <mxCell id="cgBnffwwz1y63k7dSofq-40" value="" style="shape=partialRectangle;connectable=0;fillColor=none;top=0;left=0;bottom=0;right=0;editable=1;overflow=hidden;whiteSpace=wrap;html=1;" parent="cgBnffwwz1y63k7dSofq-39" vertex="1">
          <mxGeometry width="60" height="90" as="geometry">
            <mxRectangle width="60" height="90" as="alternateBounds" />
          </mxGeometry>
        </mxCell>
        <mxCell id="cgBnffwwz1y63k7dSofq-41" value="ㅁㅈㄷㄹ&lt;div&gt;ㅈㄹㄷㅈ&lt;/div&gt;&lt;div&gt;ㄹㅈㄷㄹ&lt;/div&gt;&lt;div&gt;ㅈㄷㄹ&lt;/div&gt;&lt;div&gt;&lt;br&gt;&lt;/div&gt;" style="shape=partialRectangle;connectable=0;fillColor=none;top=0;left=0;bottom=0;right=0;align=left;spacingLeft=6;overflow=hidden;whiteSpace=wrap;html=1;" parent="cgBnffwwz1y63k7dSofq-39" vertex="1">
          <mxGeometry x="60" width="450" height="90" as="geometry">
            <mxRectangle width="450" height="90" as="alternateBounds" />
          </mxGeometry>
        </mxCell>
        <mxCell id="cgBnffwwz1y63k7dSofq-42" value="기본흐름 : 정상흐름&lt;div&gt;&lt;br&gt;&lt;div&gt;대안 흐름 : 정상흐름과는 다른 흐름(ex 취소하기)&lt;/div&gt;&lt;div&gt;&lt;br&gt;&lt;/div&gt;&lt;div&gt;예외 흐름 :&amp;nbsp; 정상흐름대로 하였을경우 생기는 오류&lt;/div&gt;&lt;/div&gt;" style="text;html=1;align=left;verticalAlign=middle;resizable=0;points=[];autosize=1;strokeColor=none;fillColor=none;" parent="1" vertex="1">
          <mxGeometry x="30" y="-674" width="290" height="90" as="geometry" />
        </mxCell>
        <mxCell id="XcRl26OEbrUWVap5_HBS-1" value="결제하기" style="text;html=1;align=center;verticalAlign=middle;resizable=0;points=[];autosize=1;strokeColor=none;fillColor=none;" vertex="1" parent="1">
          <mxGeometry x="35" y="508" width="70" height="30" as="geometry" />
        </mxCell>
      </root>
    </mxGraphModel>
  </diagram>
</mxfile>
